<mxfile host="app.diagrams.net" modified="2022-11-20T23:12:06.520Z" agent="5.0 (Windows)" etag="ShwDTO2d4ZnIydT3VPs1" version="20.5.3" type="github">
  <diagram id="C5RBs43oDa-KdzZeNtuy" name="Page-1">
    <mxGraphModel dx="1209" dy="599" grid="1" gridSize="10" guides="1" tooltips="1" connect="1" arrows="1" fold="1" page="1" pageScale="1" pageWidth="827" pageHeight="1169" math="0" shadow="0">
      <root>
        <mxCell id="WIyWlLk6GJQsqaUBKTNV-0" />
        <mxCell id="WIyWlLk6GJQsqaUBKTNV-1" parent="WIyWlLk6GJQsqaUBKTNV-0" />
        <mxCell id="QX4QgIid3GXDoORw8vEl-4" value="" style="edgeStyle=orthogonalEdgeStyle;rounded=0;orthogonalLoop=1;jettySize=auto;html=1;" edge="1" parent="WIyWlLk6GJQsqaUBKTNV-1" source="QX4QgIid3GXDoORw8vEl-0" target="QX4QgIid3GXDoORw8vEl-1">
          <mxGeometry relative="1" as="geometry" />
        </mxCell>
        <mxCell id="QX4QgIid3GXDoORw8vEl-0" value="Start" style="ellipse;whiteSpace=wrap;html=1;" vertex="1" parent="WIyWlLk6GJQsqaUBKTNV-1">
          <mxGeometry x="340" y="60" width="90" height="40" as="geometry" />
        </mxCell>
        <mxCell id="QX4QgIid3GXDoORw8vEl-9" value="" style="edgeStyle=orthogonalEdgeStyle;rounded=0;orthogonalLoop=1;jettySize=auto;html=1;" edge="1" parent="WIyWlLk6GJQsqaUBKTNV-1" source="QX4QgIid3GXDoORw8vEl-1">
          <mxGeometry relative="1" as="geometry">
            <mxPoint x="374" y="210" as="targetPoint" />
          </mxGeometry>
        </mxCell>
        <mxCell id="QX4QgIid3GXDoORw8vEl-1" value="Input int nums" style="shape=parallelogram;perimeter=parallelogramPerimeter;whiteSpace=wrap;html=1;fixedSize=1;" vertex="1" parent="WIyWlLk6GJQsqaUBKTNV-1">
          <mxGeometry x="325" y="140" width="105" height="40" as="geometry" />
        </mxCell>
        <mxCell id="QX4QgIid3GXDoORw8vEl-12" value="" style="edgeStyle=orthogonalEdgeStyle;rounded=0;orthogonalLoop=1;jettySize=auto;html=1;" edge="1" parent="WIyWlLk6GJQsqaUBKTNV-1" source="QX4QgIid3GXDoORw8vEl-10" target="QX4QgIid3GXDoORw8vEl-11">
          <mxGeometry relative="1" as="geometry" />
        </mxCell>
        <mxCell id="QX4QgIid3GXDoORw8vEl-10" value="Square each number" style="rounded=0;whiteSpace=wrap;html=1;" vertex="1" parent="WIyWlLk6GJQsqaUBKTNV-1">
          <mxGeometry x="317.5" y="210" width="120" height="40" as="geometry" />
        </mxCell>
        <mxCell id="QX4QgIid3GXDoORw8vEl-14" value="" style="edgeStyle=orthogonalEdgeStyle;rounded=0;orthogonalLoop=1;jettySize=auto;html=1;" edge="1" parent="WIyWlLk6GJQsqaUBKTNV-1" source="QX4QgIid3GXDoORw8vEl-11" target="QX4QgIid3GXDoORw8vEl-13">
          <mxGeometry relative="1" as="geometry" />
        </mxCell>
        <mxCell id="QX4QgIid3GXDoORw8vEl-11" value="Sum the square" style="rounded=0;whiteSpace=wrap;html=1;" vertex="1" parent="WIyWlLk6GJQsqaUBKTNV-1">
          <mxGeometry x="317.5" y="300" width="120" height="40" as="geometry" />
        </mxCell>
        <mxCell id="QX4QgIid3GXDoORw8vEl-16" value="" style="edgeStyle=orthogonalEdgeStyle;rounded=0;orthogonalLoop=1;jettySize=auto;html=1;" edge="1" parent="WIyWlLk6GJQsqaUBKTNV-1" source="QX4QgIid3GXDoORw8vEl-13" target="QX4QgIid3GXDoORw8vEl-15">
          <mxGeometry relative="1" as="geometry" />
        </mxCell>
        <mxCell id="QX4QgIid3GXDoORw8vEl-13" value="print output" style="shape=parallelogram;perimeter=parallelogramPerimeter;whiteSpace=wrap;html=1;fixedSize=1;" vertex="1" parent="WIyWlLk6GJQsqaUBKTNV-1">
          <mxGeometry x="310" y="370" width="120" height="40" as="geometry" />
        </mxCell>
        <mxCell id="QX4QgIid3GXDoORw8vEl-15" value="End" style="ellipse;whiteSpace=wrap;html=1;" vertex="1" parent="WIyWlLk6GJQsqaUBKTNV-1">
          <mxGeometry x="317.5" y="450" width="120" height="50" as="geometry" />
        </mxCell>
      </root>
    </mxGraphModel>
  </diagram>
</mxfile>
